<svg xmlns="http://www.w3.org/2000/svg" viewBox="0 0 32 32" fill="none">
  <rect width="32" height="32" rx="6" fill="#0a0a0a"/>
  <!-- Wrench icon in brand pink -->
  <path
    d="M21.5 7.5C19.3 7.5 17.5 9.3 17.5 11.5C17.5 12.1 17.65 12.65 17.9 13.15L10.5 20.55C10.0 20.3 9.45 20.15 8.85 20.15C6.65 20.15 4.85 21.95 4.85 24.15C4.85 26.35 6.65 28.15 8.85 28.15C11.05 28.15 12.85 26.35 12.85 24.15C12.85 23.55 12.7 22.95 12.45 22.45L19.85 15.05C20.35 15.3 20.9 15.45 21.5 15.45C23.7 15.45 25.5 13.65 25.5 11.45C25.5 11.0 25.4 10.55 25.25 10.15L22.5 12.9L20.1 10.5L22.85 7.75C22.45 7.6 22.0 7.5 21.5 7.5Z"
    fill="#ED0C85"
  />
</svg>
